<svg width="16" height="16" viewBox="0 0 16 16" fill="none" xmlns="http://www.w3.org/2000/svg">
<path fill-rule="evenodd" clip-rule="evenodd" d="M0 8C0 3.58215 3.58215 0 8 0C12.4178 0 16 3.58215 16 8C16 12.4178 12.4178 16 8 16C3.58215 16 0 12.4178 0 8ZM8.80631 8.79093H11.2072C11.6498 8.79093 12.0063 8.43398 12.0063 7.99272V7.99093C12.0063 7.54788 11.6498 7.19093 11.2072 7.19093H8.80631V4.79093C8.80631 4.34788 8.44976 3.99093 8.00721 3.99093H8.00542C7.56466 3.99093 7.20631 4.34967 7.20631 4.79093V7.19093H4.80542C4.36466 7.19093 4.00631 7.54967 4.00631 7.99093V7.99272C4.00631 8.43398 4.36287 8.79093 4.80542 8.79093H7.20631V11.1909C7.20631 11.634 7.56466 11.9909 8.00542 11.9909H8.00721C8.44797 11.9909 8.80631 11.6322 8.80631 11.1909V8.79093Z" fill="#CCCCCC"/>
</svg>
