<svg width="20" height="20" viewBox="0 0 20 20" fill="none" xmlns="http://www.w3.org/2000/svg">
<path d="M17.1053 1H2.89474C1.85263 1 1 1.85263 1 2.89474V17.1053C1 18.1474 1.85263 19 2.89474 19H17.1053C18.1474 19 19 18.1474 19 17.1053V2.89474C19 1.85263 18.1474 1 17.1053 1ZM8.72105 15.0211C9.00526 15.3053 9.00526 15.7316 8.72105 16.0158C8.43684 16.3 8.01053 16.3 7.72632 16.0158L6.49474 14.7842L5.26316 16.0158C4.97895 16.3 4.55263 16.3 4.26842 16.0158C3.98421 15.7316 3.98421 15.3053 4.26842 15.0211L5.5 13.7895L4.26842 12.5579C3.98421 12.2737 3.98421 11.8474 4.26842 11.5632C4.55263 11.2789 4.97895 11.2789 5.26316 11.5632L6.49474 12.7947L7.72632 11.5632C8.01053 11.2789 8.43684 11.2789 8.72105 11.5632C9.00526 11.8474 9.00526 12.2737 8.72105 12.5579L7.44211 13.7895L8.72105 15.0211ZM8.57895 6.92105H7.1579V8.34211C7.1579 8.72105 6.82632 9.05263 6.44737 9.05263C6.06842 9.05263 5.73684 8.72105 5.73684 8.34211V6.92105H4.31579C3.93684 6.92105 3.60526 6.58947 3.60526 6.21053C3.60526 5.83158 3.93684 5.5 4.31579 5.5H5.73684V4.07895C5.73684 3.7 6.06842 3.36842 6.44737 3.36842C6.82632 3.36842 7.1579 3.7 7.1579 4.07895V5.5H8.57895C8.9579 5.5 9.28947 5.83158 9.28947 6.21053C9.28947 6.58947 8.9579 6.92105 8.57895 6.92105ZM13.7895 16.6316C13.4105 16.6316 13.0789 16.3 13.0789 15.9211C13.0789 15.5421 13.4105 15.2105 13.7895 15.2105C14.1684 15.2105 14.5 15.5421 14.5 15.9211C14.5 16.3 14.1684 16.6316 13.7895 16.6316ZM15.9211 14.2632H11.6579C11.2789 14.2632 10.9474 13.9316 10.9474 13.5526C10.9474 13.1737 11.2789 12.8421 11.6579 12.8421H15.9211C16.3 12.8421 16.6316 13.1737 16.6316 13.5526C16.6316 13.9316 16.3 14.2632 15.9211 14.2632ZM13.0789 11.1842C13.0789 10.8053 13.4105 10.4737 13.7895 10.4737C14.1684 10.4737 14.5 10.8053 14.5 11.1842C14.5 11.5632 14.1684 11.8947 13.7895 11.8947C13.4105 11.8947 13.0789 11.5632 13.0789 11.1842ZM15.9211 6.92105H11.6579C11.2789 6.92105 10.9474 6.58947 10.9474 6.21053C10.9474 5.83158 11.2789 5.5 11.6579 5.5H15.9211C16.3 5.5 16.6316 5.83158 16.6316 6.21053C16.6316 6.58947 16.3 6.92105 15.9211 6.92105Z" fill="#F080D7"/>
</svg>
