<svg width="16" height="16" viewBox="0 0 16 16" fill="none" xmlns="http://www.w3.org/2000/svg">
<path d="M13.0558 0.992188C13.3331 0.992188 13.5918 1.04552 13.8318 1.15219C14.0718 1.25885 14.2825 1.40285 14.4638 1.58419C14.6451 1.76552 14.7891 1.97619 14.8958 2.21619C15.0025 2.45619 15.0558 2.71485 15.0558 2.99219V13.0082C15.0558 13.2855 15.0025 13.5442 14.8958 13.7842C14.7891 14.0242 14.6451 14.2349 14.4638 14.4162C14.2825 14.5975 14.0718 14.7415 13.8318 14.8482C13.5918 14.9549 13.3331 15.0082 13.0558 15.0082H6.04781C5.77048 15.0082 5.51181 14.9549 5.27181 14.8482C5.03181 14.7415 4.82115 14.5975 4.63981 14.4162C4.45848 14.2349 4.31448 14.0242 4.20781 13.7842C4.10115 13.5442 4.04781 13.2855 4.04781 13.0082V10.0002H6.04781V13.0082H13.0558V2.99219H6.04781V6.00019H4.04781V2.99219C4.04781 2.71485 4.10115 2.45619 4.20781 2.21619C4.31448 1.97619 4.45848 1.76552 4.63981 1.58419C4.82115 1.40285 5.03181 1.25885 5.27181 1.15219C5.51181 1.04552 5.77048 0.992188 6.04781 0.992188H13.0558V0.992188ZM8.01581 9.60019C8.01581 9.39752 7.96515 9.24819 7.86381 9.15219C7.76248 9.05619 7.63715 9.00819 7.48781 9.00819H1.56781C1.41848 9.00819 1.28781 8.96819 1.17581 8.88819C1.06381 8.80819 1.00781 8.67219 1.00781 8.48019V7.66419C1.00781 7.35485 1.05581 7.16019 1.15181 7.08019C1.24781 7.00019 1.43448 6.96019 1.71181 6.96019H2.20781C2.46381 6.96019 2.76781 6.96285 3.11981 6.96819C3.47181 6.97352 3.85581 6.97885 4.27181 6.98419C4.68781 6.98952 5.09048 6.99485 5.47981 7.00019C5.86915 7.00552 6.22915 7.00819 6.55981 7.00819H7.35981C7.59448 7.00819 7.76248 6.92285 7.86381 6.75219C7.96515 6.58152 8.01581 6.39485 8.01581 6.19219V5.42419C8.01581 5.21085 8.06115 5.07752 8.15181 5.02419C8.24248 4.97085 8.37848 5.01885 8.55981 5.16819C8.74115 5.31752 8.98648 5.48819 9.29581 5.68019C9.60514 5.87219 9.92781 6.06952 10.2638 6.27219C10.5998 6.47485 10.9278 6.67485 11.2478 6.87219C11.5678 7.06952 11.8238 7.24819 12.0158 7.40819C12.1651 7.52552 12.2398 7.68552 12.2398 7.88819C12.2398 8.09085 12.1811 8.24019 12.0638 8.33619C11.8931 8.48552 11.6611 8.65352 11.3678 8.84019C11.0745 9.02685 10.7651 9.21885 10.4398 9.41619C10.1145 9.61352 9.79715 9.80819 9.48781 10.0002C9.17848 10.1922 8.92781 10.3682 8.73581 10.5282C8.49048 10.7309 8.30915 10.8349 8.19181 10.8402C8.07448 10.8455 8.01581 10.6882 8.01581 10.3682V9.60019V9.60019Z" fill="#ccc"/>
</svg>
