<svg width="20" height="20" viewBox="0 0 20 20" fill="none" xmlns="http://www.w3.org/2000/svg">
<g clip-path="url(#clip0_129_2676)">
<path d="M1.50036 19.1667C1.11455 19.143 0.734895 19.0586 0.37536 18.9167C0.253734 18.8084 0.157175 18.6749 0.09241 18.5255C0.0276451 18.3762 -0.00376779 18.2144 0.000359987 18.0517C0.00983698 17.909 0.0479191 17.7696 0.112341 17.6419C0.176763 17.5142 0.26621 17.4008 0.37536 17.3083C0.603567 17.1701 0.859834 17.0846 1.12536 17.0583H1.75036C2.12536 17.0583 2.50036 17.1825 3.00036 17.1825C3.35361 17.2341 3.71294 17.1442 4.00036 16.9325C4.35611 16.3612 4.60988 15.7324 4.75036 15.0742L6.50036 8.01334H4.37536L4.75036 6.65084H7.00036V6.40084C7.14352 5.35561 7.4828 4.34682 8.00036 3.4275C8.47081 2.62569 9.16621 1.97955 10.0004 1.56917C10.7457 1.19241 11.5482 0.941257 12.3754 0.825836C12.723 0.834849 13.0644 0.920198 13.3754 1.07584C13.4973 1.18437 13.5941 1.31824 13.6588 1.4681C13.7236 1.61795 13.7549 1.78015 13.7504 1.94334C13.7243 2.20684 13.6389 2.461 13.5004 2.68667C13.2722 2.82494 13.0159 2.91036 12.7504 2.93667C12.3239 2.91339 11.903 2.8292 11.5004 2.68667C11.2504 2.68667 11.1254 2.5625 10.8754 2.5625C10.6937 2.59721 10.5217 2.67043 10.3707 2.77724C10.2198 2.88404 10.0935 3.02195 10.0004 3.18167C9.73629 3.78095 9.5271 4.40294 9.37536 5.04L8.87536 6.65L14.2504 6.52584H14.3754C14.5188 6.53495 14.6589 6.5725 14.7877 6.63631C14.9165 6.70012 15.0312 6.78891 15.1254 6.8975C15.2709 7.21965 15.3961 7.55057 15.5004 7.88834L15.6254 8.38417L16.0004 7.88834C16.3528 7.41539 16.7741 6.99797 17.2504 6.65C17.727 6.27948 18.2833 6.02499 18.8754 5.90667C19.1409 5.93298 19.3972 6.0184 19.6254 6.15667C19.7136 6.23387 19.7844 6.32906 19.8329 6.43585C19.8814 6.54264 19.9064 6.65856 19.9064 6.77584C19.9064 6.89311 19.8814 7.00904 19.8329 7.11583C19.7844 7.22262 19.7136 7.3178 19.6254 7.395L19.5004 7.51917C19.3754 7.64334 19.1254 7.76917 18.3754 7.76917C18.0065 7.75908 17.6481 7.89229 17.3754 8.14084C16.8521 8.6182 16.3903 9.15873 16.0004 9.75V10L16.5004 12.6017C16.7504 13.5925 17.3754 14.5833 17.7504 14.5833C18.1254 14.5833 18.1254 14.3333 18.2504 14.2117V14.0875C18.3307 13.9056 18.4512 13.7443 18.6027 13.6156C18.7542 13.4869 18.9329 13.3941 19.1254 13.3442C19.3754 13.3442 19.5004 13.4683 19.7504 13.5942C19.9065 13.7631 19.9955 13.9833 20.0004 14.2133C20.0012 14.4373 19.9441 14.6577 19.8346 14.8531C19.7251 15.0485 19.5669 15.2122 19.3754 15.3283C19.1906 15.4981 18.9738 15.6294 18.7377 15.7146C18.5017 15.7997 18.251 15.8369 18.0004 15.8242C17.2665 15.8223 16.5573 15.5587 16.0004 15.0808C15.3772 14.3579 14.9092 13.5146 14.6254 12.6033L14.5004 12.1075L14.1254 12.4792C13.6527 13.1929 13.1082 13.8564 12.5004 14.4592C12.3156 14.629 12.0988 14.7603 11.8627 14.8454C11.6267 14.9305 11.376 14.9678 11.1254 14.955C10.9614 14.9597 10.7983 14.9289 10.6473 14.8647C10.4963 14.8006 10.3609 14.7046 10.2504 14.5833C10.1412 14.4909 10.0518 14.3775 9.98734 14.2498C9.92292 14.1221 9.88484 13.9827 9.87536 13.84C9.85861 13.7053 9.87238 13.5685 9.91566 13.4398C9.95894 13.3112 10.0306 13.1939 10.1254 13.0967C10.2504 12.8467 10.5004 12.8467 10.7504 12.8467C10.8962 12.8427 11.0408 12.8744 11.1716 12.9392C11.3023 13.004 11.4152 13.0998 11.5004 13.2183L11.6254 13.4683L11.8754 13.3442L12.2504 12.9725C12.5764 12.6742 12.8697 12.3421 13.1254 11.9817L14.2504 10.3717L13.7504 8.01834L8.75036 7.89417L7.37536 13.4683C7.00028 15.0169 6.2731 16.4582 5.25036 17.68C4.20079 18.5793 2.88104 19.1025 1.50036 19.1667V19.1667Z" fill="#2D8CF0"/>
</g>
<defs>
<clipPath id="clip0_129_2676">
<rect width="20" height="20" fill="white"/>
</clipPath>
</defs>
</svg>
