<svg width="16" height="16" viewBox="0 0 16 16" fill="none" xmlns="http://www.w3.org/2000/svg">
<path fill-rule="evenodd" clip-rule="evenodd" d="M0 8C0 3.58215 3.58215 0 8 0C12.4178 0 16 3.58215 16 8C16 12.4178 12.4178 16 8 16C3.58215 16 0 12.4178 0 8ZM9.99181 4.51384C9.45609 4.0442 8.74895 3.78705 7.99895 3.78705C7.24895 3.78705 6.54181 4.04598 6.00609 4.51384C5.44895 5.00134 5.14181 5.6567 5.14181 6.35848V6.4942C5.14181 6.57277 5.20609 6.63705 5.28466 6.63705H6.14181C6.22038 6.63705 6.28466 6.57277 6.28466 6.4942V6.35848C6.28466 5.57099 7.05431 4.92991 7.99895 4.92991C8.94359 4.92991 9.71324 5.57099 9.71324 6.35848C9.71324 6.91384 9.32038 7.42277 8.71145 7.6567C8.33288 7.80134 8.01145 8.0549 7.78109 8.38705C7.54717 8.72633 7.42574 9.13348 7.42574 9.54598V9.92991C7.42574 10.0085 7.49002 10.0728 7.56859 10.0728H8.42574C8.50431 10.0728 8.56859 10.0085 8.56859 9.92991V9.52455C8.56859 9.17277 8.79002 8.85134 9.12038 8.72455C10.1739 8.31919 10.8543 7.39062 10.8543 6.35848C10.8561 5.6567 10.5489 5.00134 9.99181 4.51384ZM7.28605 11.9292C7.28605 12.1187 7.36131 12.3003 7.49526 12.4342C7.62921 12.5683 7.81089 12.6435 8.00033 12.6435C8.18977 12.6435 8.37145 12.5683 8.50541 12.4342C8.63936 12.3003 8.71462 12.1187 8.71462 11.9292C8.71462 11.7397 8.63936 11.5581 8.50541 11.4242C8.37145 11.2901 8.18977 11.2149 8.00033 11.2149C7.81089 11.2149 7.62921 11.2901 7.49526 11.4242C7.36131 11.5581 7.28605 11.7397 7.28605 11.9292Z" fill="#CCCCCC"/>
</svg>
