<svg width="20" height="20" viewBox="0 0 20 20" fill="none" xmlns="http://www.w3.org/2000/svg">
<path fill-rule="evenodd" clip-rule="evenodd" d="M3.66114 10.1082V15.6899H6.21393V16.7283H3.66114V16.7286H2.62268V5.26201H1.55434C1.25206 5.26201 1 5.03641 1 4.73415V1.49493C1 1.23352 1.21899 1 1.4804 1H4.71961C5.02191 1 5.28365 1.26662 5.28362 1.5689V4.80812C5.28362 5.06953 5.05495 5.26201 4.79356 5.26201H3.66114V9.04806H6.21393V10.1082H3.66114ZM7.5151 1H17.854C18.1563 1 18.3942 1.26662 18.3942 1.5689V4.80812C18.3942 5.06953 18.1893 5.26201 17.9279 5.26201H7.58907C7.28677 5.26201 7.03605 5.03641 7.03605 4.73415V1.49493C7.03605 1.23352 7.25373 1 7.5151 1ZM7.5151 7.49037H14.3041C14.6065 7.49037 14.8678 7.77465 14.8678 8.07691V11.3161C14.8678 11.5775 14.6395 11.774 14.3781 11.774H7.58907C7.28677 11.774 7.03605 11.5445 7.03605 11.2422V8.00296C7.03605 7.74155 7.25373 7.49037 7.5151 7.49037ZM7.5151 14.1322H18.4456C18.7479 14.1322 19 14.401 19 14.7032V17.9425C19 18.2039 18.781 18.3942 18.5196 18.3942H7.58907C7.28677 18.3942 7.03605 18.1708 7.03605 17.8685V14.6293C7.03605 14.3679 7.25373 14.1322 7.5151 14.1322Z" fill="#1890FF"/>
</svg>
