<svg width="20" height="20" viewBox="0 0 20 20" fill="none" xmlns="http://www.w3.org/2000/svg">
<path d="M15.2292 1.25C15.2775 1.25 15.3242 1.265 15.3625 1.2925L19.1133 3.97167C19.1431 3.99286 19.1673 4.02086 19.1841 4.05333C19.2008 4.0858 19.2096 4.1218 19.2096 4.15833C19.2096 4.19486 19.2008 4.23087 19.1841 4.26334C19.1673 4.29581 19.1431 4.32381 19.1133 4.345L15.3633 7.02417C15.3291 7.04892 15.2886 7.06371 15.2464 7.0669C15.2043 7.07008 15.162 7.06154 15.1244 7.04222C15.0868 7.0229 15.0553 6.99355 15.0333 6.95742C15.0114 6.92128 14.9998 6.87978 15 6.8375L14.9992 5H10.3508C10.2175 5 10.0725 5.14583 10.0425 5.36917L10.0367 5.45667V14.5433C10.0367 14.785 10.1658 14.9583 10.3 14.9933L10.35 15H15V13.1708C14.9999 13.1287 15.0115 13.0873 15.0334 13.0514C15.0554 13.0154 15.0868 12.9861 15.1243 12.9668C15.1617 12.9475 15.2038 12.9389 15.2458 12.942C15.2878 12.9451 15.3282 12.9596 15.3625 12.9842L19.1133 15.6633C19.1431 15.6845 19.1673 15.7125 19.1841 15.745C19.2008 15.7775 19.2096 15.8135 19.2096 15.85C19.2096 15.8865 19.2008 15.9225 19.1841 15.955C19.1673 15.9875 19.1431 16.0155 19.1133 16.0367L15.3633 18.7158C15.3291 18.7406 15.2886 18.7554 15.2464 18.7586C15.2043 18.7617 15.162 18.7532 15.1244 18.7339C15.0868 18.7146 15.0553 18.6852 15.0333 18.6491C15.0114 18.613 14.9998 18.5714 15 18.5292L14.9992 16.6667H10.3508C9.27833 16.6667 8.43917 15.7717 8.37417 14.68L8.37 14.5433L8.36917 10.8333H5.69083C5.49424 11.3896 5.10733 11.8584 4.59849 12.157C4.08965 12.4555 3.49165 12.5646 2.91017 12.4648C2.3287 12.3651 1.80121 12.063 1.42094 11.612C1.04066 11.1609 0.832092 10.59 0.832092 10C0.832092 9.41004 1.04066 8.83907 1.42094 8.38802C1.80121 7.93697 2.3287 7.63489 2.91017 7.53516C3.49165 7.43543 4.08965 7.54448 4.59849 7.84303C5.10733 8.14159 5.49424 8.61042 5.69083 9.16667H8.36917V5.45667C8.36917 4.35083 9.16583 3.41167 10.2183 3.33833L10.35 3.33333H14.9983L15 1.47917C15 1.3525 15.1025 1.25 15.2292 1.25Z" fill="#1890FF"/>
</svg>
