<svg width="20" height="20" viewBox="0 0 20 20" fill="none" xmlns="http://www.w3.org/2000/svg">
<path d="M17.2549 2H2.74506C1.79174 2 1 2.79174 1 3.74506V14.3932C1 15.3627 1.79174 16.1382 2.74506 16.1382H7.2693L9.53142 18.4004C9.66068 18.5296 9.83842 18.5943 10 18.5943C10.1777 18.5943 10.3393 18.5296 10.4686 18.4004L12.7307 16.1382H17.2549C18.2244 16.1382 19 15.3465 19 14.3932V3.74506C19 2.79174 18.2244 2 17.2549 2Z" fill="#FDBA38"/>
<path d="M4.68401 5.1185C4.34469 5.1185 4.07001 5.39319 4.03769 5.7325V12.1472C4.03769 12.5027 4.32853 12.7935 4.68401 12.7935C5.03948 12.7935 5.33033 12.5027 5.33033 12.1472V5.7325C5.29801 5.39319 5.02333 5.1185 4.68401 5.1185Z" fill="white"/>
<path d="M10.0646 7.54219C9.87073 7.39677 9.64452 7.29982 9.36984 7.23519C9.09515 7.17056 8.78815 7.1544 8.44883 7.1544C8.15799 7.1544 7.89946 7.18672 7.68941 7.23519C7.47935 7.28367 7.2693 7.36446 7.10772 7.44525C6.94614 7.52604 6.80072 7.63914 6.68761 7.73609C6.59066 7.83304 6.50987 7.92999 6.44524 8.02693C6.34829 8.14004 6.28366 8.28546 6.28366 8.44704C6.28366 8.80252 6.5745 9.09336 6.92998 9.09336C7.23698 9.09336 7.49551 8.88331 7.56014 8.59246L7.5763 8.57631C7.62477 8.52783 7.68941 8.47936 7.7702 8.43088C7.85099 8.38241 7.94793 8.35009 8.04488 8.33394C8.15799 8.30162 8.28725 8.28546 8.43267 8.28546C8.5781 8.28546 8.73967 8.30162 8.85278 8.33394C8.96589 8.35009 9.06283 8.39857 9.12747 8.44704C9.1921 8.49552 9.25673 8.56015 9.28905 8.64094C9.33752 8.72173 9.35368 8.85099 9.35368 8.98026V9.0772L8.36804 9.17415C8.0772 9.20647 7.80251 9.23878 7.5763 9.31957C7.33393 9.38421 7.10772 9.48115 6.91382 9.62658C6.71993 9.772 6.5745 9.94973 6.4614 10.1598C6.34829 10.3698 6.29982 10.6445 6.29982 10.9515C6.29982 11.1939 6.34829 11.404 6.41292 11.614C6.47756 11.8079 6.60682 12.0018 6.73608 12.1472C6.88151 12.2926 7.05924 12.4219 7.2693 12.4865C7.47935 12.5673 7.72172 12.6158 7.98025 12.6158C8.30341 12.6158 8.59425 12.5512 8.8851 12.4057C9.06283 12.3088 9.24057 12.2119 9.40215 12.0826V12.2765C9.40215 12.6158 9.67684 12.8905 10.0162 12.8905C10.3555 12.8905 10.6302 12.6158 10.6302 12.2765V8.99641C10.6302 8.6571 10.5817 8.36625 10.4847 8.12388C10.4039 7.88151 10.2585 7.68762 10.0646 7.54219ZM9.36984 10.9192C9.28905 10.9838 9.20826 11.0485 9.12747 11.1131C9.03052 11.1777 8.91741 11.2424 8.82047 11.307C8.72352 11.3555 8.62657 11.404 8.52962 11.4363C8.43267 11.4686 8.35188 11.4847 8.27109 11.4847C8.06104 11.4847 7.89946 11.4363 7.78635 11.3555C7.68941 11.2908 7.64093 11.1293 7.64093 10.9192C7.64093 10.79 7.65709 10.6768 7.70556 10.5961C7.75404 10.5153 7.81867 10.4345 7.91562 10.386C8.01257 10.3214 8.14183 10.2729 8.28725 10.2406C8.44883 10.1921 8.62657 10.1759 8.83662 10.1598L9.36984 10.1113V10.9192ZM15.8007 7.67146C15.6715 7.50988 15.5099 7.36446 15.2998 7.28367C15.1059 7.20288 14.8474 7.1544 14.5727 7.1544C14.4111 7.1544 14.2495 7.17056 14.0718 7.21903C13.9102 7.26751 13.7487 7.33214 13.6032 7.41293C13.4416 7.49372 13.3124 7.59067 13.167 7.68762L13.0377 7.78456V7.67146V7.76841C13.0377 7.41293 12.7469 7.13824 12.3914 7.13824C12.0359 7.13824 11.7451 7.41293 11.7451 7.76841V7.67146V12.2442C11.7451 12.5996 12.0359 12.8905 12.3914 12.8905C12.7469 12.8905 13.0377 12.5996 13.0377 12.2442V9.01257C13.1346 8.93178 13.2316 8.85099 13.3285 8.7702C13.4417 8.68941 13.5548 8.60862 13.6679 8.54399C13.781 8.47936 13.8779 8.43088 13.991 8.38241C14.088 8.35009 14.1849 8.33394 14.2657 8.33394C14.395 8.33394 14.5081 8.35009 14.5727 8.38241C14.6373 8.41473 14.6858 8.4632 14.7343 8.54399C14.7828 8.64094 14.7989 8.75404 14.8151 8.89947C14.8312 9.06105 14.8312 9.25494 14.8312 9.49731V12.2119C14.8312 12.5673 15.1221 12.8582 15.4776 12.8582C15.833 12.8582 16.1239 12.5673 16.1239 12.2119V9.04489C16.1239 8.75404 16.1077 8.49552 16.0592 8.2693C16.0269 8.04309 15.93 7.83304 15.8007 7.67146Z" fill="white"/>
</svg>
