<?xml version="1.0" encoding="UTF-8"?>
<svg width="20px" height="20px" viewBox="0 0 20 20" version="1.1" xmlns="http://www.w3.org/2000/svg" xmlns:xlink="http://www.w3.org/1999/xlink">
    <title>Group 90@3x</title>
    <g id="Page-1" stroke="none" stroke-width="1" fill="none" fill-rule="evenodd">
        <g id="Group-90">
            <rect id="Rectangle" x="0" y="0" width="20" height="20"></rect>
            <path d="M5.3,5.4 C5.3,4.2 4.5,3.18 3.4,2.86 L3.4,0.75 C3.4,0.34 3.06,0 2.65,0 C2.24,0 1.9,0.34 1.9,0.75 L1.9,2.86 C0.8,3.18 0,4.2 0,5.4 C0,6.6 0.81,7.62 1.91,7.94 L1.94,12.04 C0.82,12.36 0,13.38 0,14.6 C0,15.8 0.8,16.82 1.9,17.14 L1.9,19.2 C1.9,19.61 2.24,19.95 2.65,19.95 C3.06,19.95 3.4,19.61 3.4,19.2 L3.4,17.14 C4.5,16.82 5.3,15.8 5.3,14.6 C5.3,13.41 4.52,12.41 3.44,12.07 L3.41,7.94 C4.5,7.61 5.3,6.6 5.3,5.4 Z M1.5,5.4 C1.5,4.77 2.02,4.25 2.65,4.25 C3.28,4.25 3.8,4.77 3.8,5.4 C3.8,6.03 3.28,6.55 2.65,6.55 C2.02,6.55 1.5,6.03 1.5,5.4 Z M3.8,14.6 C3.8,15.23 3.28,15.75 2.65,15.75 C2.02,15.75 1.5,15.23 1.5,14.6 C1.5,13.97 2.02,13.45 2.65,13.45 C3.28,13.45 3.8,13.97 3.8,14.6 Z M18.05,1.9 L8.35,1.9 C7.27,1.9 6.4,2.77 6.4,3.85 L6.4,6.95 C6.4,8.03 7.27,8.9 8.35,8.9 L18.05,8.9 C19.13,8.9 20,8.03 20,6.95 L20,3.85 C20,2.77 19.13,1.9 18.05,1.9 Z M18.05,11.1 L8.35,11.1 C7.27,11.1 6.4,11.97 6.4,13.05 L6.4,16.15 C6.4,17.23 7.27,18.1 8.35,18.1 L18.05,18.1 C19.13,18.1 20,17.23 20,16.15 L20,13.05 C20,11.97 19.13,11.1 18.05,11.1 Z" id="Shape" fill="#2D8CF0" fill-rule="nonzero"></path>
        </g>
    </g>
</svg>