<svg width="20" height="20" viewBox="0 0 20 20" fill="none" xmlns="http://www.w3.org/2000/svg">
<path d="M11.3859 18.6608C12.0698 19.3747 10.9482 20.4703 10.1756 19.7812C9.3914 19.0777 8.60455 18.3755 7.819 17.6721C7.48941 17.3777 7.49852 16.8031 7.81118 16.5048C8.58631 15.7597 9.36013 15.0145 10.1353 14.2706C10.8804 13.558 12.0008 14.6211 11.3742 15.3597C15.2381 14.9116 16.6281 10.6712 14.5294 7.62539C13.3152 5.87191 16.1187 4.30472 17.3198 6.04387C20.9766 11.3408 17.5283 17.9873 11.3859 18.6608ZM2.49863 13.9515C-1.15944 8.65585 2.28759 2.01451 8.42607 1.33839C7.74344 0.625797 8.86509 -0.471104 9.63631 0.219344C10.4219 0.920215 11.2061 1.62239 11.9943 2.32717C12.3212 2.61898 12.3147 3.19349 12.0021 3.49442C11.2269 4.23828 10.4544 4.98084 9.678 5.7247C8.93544 6.4386 7.81379 5.37426 8.4404 4.63822C4.5778 5.08375 3.18648 9.32545 5.28779 12.3699C6.49933 14.1208 3.69845 15.6893 2.49863 13.9515Z" fill="#1890FF"/>
</svg>
