<svg width="20" height="20" viewBox="0 0 20 20" fill="none" xmlns="http://www.w3.org/2000/svg">
<path d="M10.006 1.01261C10.2491 1.0128 10.4852 1.03361 10.7191 1.07047C10.7558 0.978787 10.7788 0.88021 10.7789 0.77703C10.7792 0.350552 10.4333 0.00635683 10.0091 0.00603708C9.58259 0.00571561 9.2384 0.351683 9.23808 0.775868C9.238 0.879048 9.25856 0.979951 9.29747 1.0694C9.52679 1.03289 9.76297 1.01243 10.006 1.01261ZM9.9946 16.1663L7.36465 16.1644C7.34161 16.3065 7.32546 16.4486 7.32534 16.5977C7.32423 18.072 8.51793 19.2675 9.99226 19.2686C11.4666 19.2697 12.6621 18.076 12.6632 16.6017C12.6633 16.455 12.6474 16.3105 12.6245 16.1683L9.9946 16.1663ZM16.694 13.6974C15.7883 13.6967 15.4724 12.9833 15.4732 11.924C15.4735 11.509 15.3928 6.01289 15.3928 6.01289C15.3948 3.40587 12.966 1.15701 10.0059 1.15477C7.04579 1.15254 4.61363 3.39775 4.61166 6.00476C4.61166 6.00476 4.52269 11.4985 4.52237 11.9158C4.52157 12.9751 4.20462 13.6879 3.29892 13.6873C2.43221 13.6866 1.98938 14.0829 1.98883 14.819C1.98836 15.4426 2.57725 15.9521 3.29722 15.9526L16.6923 15.9627C17.4123 15.9633 18.0019 15.4547 18.0024 14.831C18.0029 14.095 17.5607 13.698 16.694 13.6974Z" fill="#1890FF"/>
</svg>
