<svg width="20" height="20" viewBox="0 0 20 20" fill="none" xmlns="http://www.w3.org/2000/svg">
<path d="M10.0011 0C4.50241 0 0 4.4733 0 10.0011C0 15.4998 4.47106 20 9.99888 20C15.5267 20 19.9978 15.5289 19.9978 10.0011C20 4.50241 15.5289 0 10.0011 0Z" fill="#1890FF"/>
<path d="M7.7644 6.00519L8.52982 6.26876C8.5537 6.27698 8.57334 6.29436 8.58441 6.31706C8.59549 6.33976 8.59709 6.36593 8.58887 6.38981L7.0576 10.8369H8.95238C8.97764 10.8369 9.00186 10.8469 9.01972 10.8648C9.03759 10.8826 9.04762 10.9068 9.04762 10.9321V13.7892C9.04762 13.8145 9.03759 13.8387 9.01972 13.8566C9.00186 13.8744 8.97764 13.8845 8.95238 13.8845H6.09524C6.06998 13.8845 6.04576 13.8744 6.02789 13.8566C6.01003 13.8387 6 13.8145 6 13.7892V10.8687C6 10.8476 6.00351 10.8267 6.01038 10.8067L7.64333 6.06424C7.6474 6.05241 7.65377 6.0415 7.66205 6.03213C7.67034 6.02277 7.68039 6.01512 7.69163 6.00964C7.70287 6.00416 7.71509 6.00094 7.72757 6.00018C7.74005 5.99941 7.75257 6.00112 7.76439 6.00519H7.7644ZM12.7168 6.00519L13.4822 6.26876C13.5061 6.27698 13.5257 6.29436 13.5368 6.31706C13.5479 6.33976 13.5495 6.36593 13.5413 6.38981L12.01 10.8369H13.9048C13.93 10.8369 13.9542 10.8469 13.9721 10.8648C13.99 10.8826 14 10.9068 14 10.9321V13.7892C14 13.8145 13.99 13.8387 13.9721 13.8566C13.9542 13.8744 13.93 13.8845 13.9048 13.8845H11.0476C11.0224 13.8845 10.9981 13.8744 10.9803 13.8566C10.9624 13.8387 10.9524 13.8145 10.9524 13.7892V10.8687C10.9524 10.8476 10.9559 10.8267 10.9628 10.8067L12.5957 6.06424C12.5998 6.05241 12.6061 6.0415 12.6144 6.03213C12.6227 6.02277 12.6328 6.01512 12.644 6.00964C12.6553 6.00416 12.6675 6.00094 12.68 6.00018C12.6924 5.99941 12.7049 6.00112 12.7168 6.00519H12.7168Z" fill="white"/>
</svg>
