<svg width="20" height="20" viewBox="0 0 20 20" fill="none" xmlns="http://www.w3.org/2000/svg">
<path d="M3.73528 5.1513C4.29283 5.45547 4.90715 5.71693 5.56353 5.93255C5.22759 7.1849 5.0358 8.56576 5.00455 9.99948H0.842438C0.925035 8.03023 1.61578 6.13495 2.81965 4.57435C3.1119 4.7865 3.41777 4.97923 3.73528 5.1513V5.1513ZM9.99999 10.8333H5.83814C5.86874 12.1875 6.04869 13.4896 6.36262 14.6655C7.49244 14.371 8.72434 14.202 9.99999 14.1717V10.8333ZM3.73528 15.682C4.29283 15.3779 4.90715 15.1164 5.56353 14.9008C5.22759 13.6484 5.0358 12.2676 5.00455 10.8339H0.842438C0.924929 12.8033 1.61568 14.6988 2.81965 16.2595C3.11189 16.0472 3.41775 15.8543 3.73528 15.682V15.682ZM10.8333 1.28906V5.82813C12.0279 5.79857 13.1781 5.6418 14.2308 5.37005C14.055 4.84188 13.8383 4.32818 13.5828 3.8336C12.8173 2.36576 11.8536 1.4793 10.8333 1.28906ZM9.99999 10V6.66159C8.72395 6.63138 7.49244 6.46237 6.36262 6.16784C6.04869 7.34375 5.86874 8.64584 5.83814 10H9.99999ZM14.4707 6.16784C13.3409 6.46237 12.1094 6.63138 10.8333 6.66159V10H14.9952C14.9646 8.64584 14.7846 7.34375 14.4707 6.16784ZM9.99999 19.5443V15.0052C8.80546 15.0348 7.6552 15.1915 6.60246 15.4633C6.77829 15.9917 6.99496 16.5056 7.25051 17.0004C8.01601 18.4676 8.97968 19.354 9.99999 19.5443ZM7.25051 3.83294C6.99496 4.32773 6.77829 4.84165 6.60246 5.37005C7.6552 5.6418 8.80546 5.79857 9.99999 5.82813V1.28906C8.97968 1.4793 8.01601 2.36576 7.25051 3.83294ZM17.098 5.1513C16.5405 5.45547 15.9262 5.71693 15.2698 5.93255C15.6057 7.1849 15.7975 8.56576 15.8288 9.99948H19.9909C19.9084 8.03005 19.2176 6.13457 18.0137 4.57383C17.7214 4.78616 17.4156 4.97907 17.098 5.1513V5.1513ZM4.13436 4.41979C4.64218 4.69701 5.20272 4.9362 5.80298 5.13516C6.00403 4.53229 6.24101 3.96654 6.51171 3.44753C6.99739 2.51654 7.56809 1.78151 8.20806 1.26302C8.31761 1.17405 8.42846 1.09206 8.54061 1.01706C6.50767 1.42071 4.70637 2.46693 3.35741 3.93555C3.60638 4.11251 3.86584 4.27422 4.13436 4.41979ZM8.20806 19.5703C7.56809 19.0516 6.99713 18.3165 6.51171 17.3855C6.24101 16.8667 6.0039 16.3008 5.80298 15.6979C5.20272 15.8969 4.64257 16.1361 4.13436 16.4133C3.86584 16.5589 3.60638 16.7206 3.35741 16.8975C4.70637 18.3661 6.50767 19.4125 8.54061 19.816C8.42846 19.7412 8.31761 19.6593 8.20806 19.5703V19.5703ZM16.6989 16.4133C16.1911 16.1361 15.6312 15.8969 15.0303 15.6979C14.8293 16.3008 14.5923 16.8667 14.3216 17.3855C13.8359 18.3165 13.2652 19.0522 12.6253 19.5703C12.5156 19.6591 12.4048 19.741 12.2927 19.816C14.3256 19.4124 16.1269 18.3661 17.4759 16.8975C17.2269 16.7207 16.9675 16.559 16.6989 16.4135V16.4133ZM13.5828 17.0001C13.8384 16.5053 14.055 15.9914 14.2308 15.463C13.1781 15.1913 12.0279 15.0345 10.8333 15.005V19.5443C11.8536 19.354 12.8173 18.4676 13.5828 17.0004V17.0001ZM10.8333 10.8333V14.1717C12.1094 14.202 13.3409 14.371 14.4707 14.6655C14.7846 13.4891 14.9646 12.1882 14.9952 10.8333H10.8333ZM12.6253 1.26302C13.2652 1.78177 13.8362 2.5168 14.3216 3.44779C14.5923 3.9668 14.8294 4.53255 15.0303 5.13542C15.6306 4.93646 16.1907 4.69727 16.6989 4.42005C16.9675 4.27448 17.2269 4.11277 17.4759 3.93581C16.1269 2.46693 14.3256 1.42057 12.2927 1.01706C12.4049 1.09206 12.5157 1.17405 12.6253 1.26302ZM18.0137 16.2592C19.2177 14.6984 19.9084 12.8029 19.9909 10.8333H15.8288C15.7975 12.2671 15.6057 13.6479 15.2698 14.9003C15.9267 15.1164 16.5405 15.3779 17.098 15.6815C17.4156 15.8537 17.7214 16.0467 18.0137 16.259V16.2592Z" fill="#1890FF"/>
</svg>
