<svg width="18" height="18" viewBox="0 0 18 18" fill="none" xmlns="http://www.w3.org/2000/svg">
<g clip-path="url(#clip0_207_50)">
<path d="M17.089 3.59325H12.6017V0.894096C12.6017 0.354264 12.2474 0 11.7076 0H6.30928C5.75258 0 5.39831 0.354264 5.39831 0.894096V3.59325H0.894096C0.354264 3.59325 0 3.94752 0 4.48735V9.88566H0.894096V17.089C0.894096 17.6289 1.24836 17.9831 1.78819 17.9831H16.1949C16.7348 17.9831 17.089 17.6289 17.089 17.089V9.90253H17.9831V4.50422C18 3.96439 17.6289 3.59325 17.089 3.59325ZM16.1949 8.09747H1.80506V5.39831H7.20337V1.80506H10.7966V5.39831H16.1949V8.09747Z" fill="#1890FF"/>
<path d="M15.3008 16.195H6.29241V11.6907H4.50422V16.195H2.69916" fill="white"/>
</g>
<defs>
<clipPath id="clip0_207_50">
<rect width="18" height="18" fill="white"/>
</clipPath>
</defs>
</svg>
