<svg width="20" height="20" viewBox="0 0 20 20" fill="none" xmlns="http://www.w3.org/2000/svg">
<path d="M1 6.5H19V15.5C19 15.7955 18.9418 16.0881 18.8287 16.361C18.7157 16.634 18.5499 16.8821 18.341 17.091C18.1321 17.2999 17.884 17.4657 17.611 17.5787C17.3381 17.6918 17.0455 17.75 16.75 17.75H3.25C2.95453 17.75 2.66194 17.6918 2.38896 17.5787C2.11598 17.4657 1.86794 17.2999 1.65901 17.091C1.45008 16.8821 1.28434 16.634 1.17127 16.361C1.0582 16.0881 1 15.7955 1 15.5V6.5ZM4.86606 2H15.1339C15.4637 2.00012 15.7895 2.07274 16.0881 2.21272C16.3867 2.35269 16.6509 2.5566 16.8619 2.81L19 5.375H1L3.1375 2.81C3.34869 2.55645 3.61306 2.35246 3.91188 2.21248C4.2107 2.0725 4.53665 1.99996 4.86663 2H4.86606ZM6.0625 9.875C5.91332 9.875 5.77024 9.93427 5.66475 10.0398C5.55926 10.1452 5.5 10.2883 5.5 10.4375C5.5 10.5867 5.55926 10.7298 5.66475 10.8352C5.77024 10.9407 5.91332 11 6.0625 11H13.9375C14.0867 11 14.2298 10.9407 14.3352 10.8352C14.4407 10.7298 14.5 10.5867 14.5 10.4375C14.5 10.2883 14.4407 10.1452 14.3352 10.0398C14.2298 9.93427 14.0867 9.875 13.9375 9.875H6.0625ZM6.0625 12.6875C5.91332 12.6875 5.77024 12.7468 5.66475 12.8523C5.55926 12.9577 5.5 13.1008 5.5 13.25C5.5 13.3992 5.55926 13.5423 5.66475 13.6477C5.77024 13.7532 5.91332 13.8125 6.0625 13.8125H13.9375C14.0867 13.8125 14.2298 13.7532 14.3352 13.6477C14.4407 13.5423 14.5 13.3992 14.5 13.25C14.5 13.1008 14.4407 12.9577 14.3352 12.8523C14.2298 12.7468 14.0867 12.6875 13.9375 12.6875H6.0625Z" fill="#5DCFC9"/>
<path d="M7.65368 8.84914C7.91884 9.11431 7.91884 9.37947 7.65368 9.64464L6.46043 10.8379C6.19527 11.103 5.9301 11.103 5.66494 10.8379C5.39977 10.5727 5.39977 10.3075 5.66494 10.0424L6.85818 8.84914C7.12335 8.58398 7.38851 8.58398 7.65368 8.84914Z" fill="white"/>
<path d="M14.3317 12.848C14.5968 13.1131 14.5968 13.3783 14.3317 13.6434L13.1384 14.8367C12.8732 15.1019 12.6081 15.1019 12.3429 14.8367C12.0778 14.5715 12.0778 14.3064 12.3429 14.0412L13.5362 12.848C13.8013 12.5828 14.0665 12.5828 14.3317 12.848Z" fill="white"/>
</svg>
