<svg width="20" height="20" viewBox="0 0 20 20" fill="none" xmlns="http://www.w3.org/2000/svg">
<g clip-path="url(#clip0_80_6)">
<path d="M10.1047 0.308807C4.6941 0.308807 0.308899 4.69421 0.308899 10.1047C0.308799 15.5141 4.694 19.9 10.1047 19.9C15.5142 19.9 19.9 15.5141 19.9 10.1047C19.9 4.69421 15.5093 0.308807 10.1047 0.308807ZM13.1944 10.8508L9.2947 14.7514C8.8815 15.1651 8.2149 15.1651 7.8019 14.7514C7.3886 14.3375 7.3886 13.6727 7.8019 13.259L10.9561 10.1047L7.8019 6.95031C7.3886 6.53671 7.3886 5.87071 7.8019 5.45741C8.2149 5.04441 8.8815 5.04441 9.2947 5.45741L13.1944 9.35791C13.6083 9.77101 13.6083 10.4419 13.1944 10.8508Z" fill="#5DCFC9"/>
</g>
<defs>
<clipPath id="clip0_80_6">
<rect width="20" height="20" fill="white"/>
</clipPath>
</defs>
</svg>
