<svg width="20" height="20" viewBox="0 0 20 20" fill="none" xmlns="http://www.w3.org/2000/svg">
<path d="M16.0893 1H3.91061C2.31017 1 1 2.30985 1 3.91094V16.0891C1 17.6903 2.31017 19 3.91061 19H16.0894C17.6904 19 19 17.6903 19 16.0891V3.91094C18.9999 2.30985 17.6903 1 16.0893 1ZM14.6097 10.2271L7.24348 14.4745C7.24066 14.4756 7.11474 14.5384 6.98847 14.4659C6.8648 14.3943 6.8541 14.2901 6.85365 14.2589V5.75561C6.85365 5.75561 6.86075 5.6127 6.98847 5.53894C7.11215 5.46776 7.20811 5.51078 7.23515 5.52599L14.6094 9.7773C14.6094 9.7773 14.7297 9.85512 14.7297 10.0026C14.7297 10.1709 14.6097 10.2271 14.6097 10.2271Z" fill="#4BC95F"/>
</svg>
