<svg width="20" height="20" viewBox="0 0 20 20" fill="none" xmlns="http://www.w3.org/2000/svg">
<path d="M10.0457 7.98822L9.64668 6.91365C9.60767 6.80847 9.45864 6.80887 9.42022 6.91446L9.02905 7.98883C9.00049 8.06746 9.05882 8.15073 9.14248 8.15073H9.93247C10.0165 8.15073 10.0749 8.06686 10.0457 7.98822ZM10.0457 7.98822L9.64668 6.91365C9.60767 6.80847 9.45864 6.80887 9.42022 6.91446L9.02905 7.98883C9.00049 8.06746 9.05882 8.15073 9.14248 8.15073H9.93247C10.0165 8.15073 10.0749 8.06686 10.0457 7.98822ZM16.6958 4.19777L16.7017 3.61674V1.8648C16.7017 1.38735 16.3145 1 15.8369 1H3.32737C2.84972 1 2.46257 1.38735 2.46257 1.8648V4.19777H2V11.6592H2.46257V18.1352C2.46257 18.6129 2.84972 19 3.32737 19H12.1627C12.1954 19 12.2276 18.9982 12.2592 18.9946C12.2821 18.9964 12.3051 18.9976 12.328 18.9976C12.5283 18.9978 12.7296 18.9288 12.8931 18.7878L14.992 16.978C15.3536 16.666 15.394 16.1198 15.0821 15.7582C14.7701 15.3966 14.2241 15.3562 13.8625 15.6681L13.0257 16.3897L13.0244 15.2544L15.717 15.2956C16.1965 15.3029 16.5903 14.9187 16.5951 14.4393L16.6224 11.6592H17.124V4.19777H16.6958ZM4.19218 2.72961H14.9721V3.60387L14.9662 4.19777H4.19218V2.72961ZM7.69524 9.23616L8.93573 6.05106C8.97134 5.95964 9.02707 5.87741 9.0988 5.81047C9.17053 5.74353 9.25641 5.69361 9.35007 5.6644C9.44373 5.63518 9.54276 5.62744 9.63983 5.64173C9.73689 5.65603 9.82949 5.692 9.91075 5.74697C10.0165 5.81857 10.1014 5.92114 10.1511 6.04523L11.4274 9.23254C11.5358 9.50324 11.3363 9.79788 11.0446 9.79788H11.0225C10.852 9.79788 10.6989 9.69289 10.6378 9.53361L10.4055 8.92965C10.3968 8.90686 10.3813 8.88725 10.3612 8.87342C10.3411 8.85959 10.3173 8.8522 10.2929 8.85222H8.79636C8.74547 8.85222 8.70022 8.884 8.68293 8.93166L8.46673 9.52637C8.43788 9.60594 8.38522 9.67469 8.31591 9.72327C8.2466 9.77185 8.16401 9.7979 8.07937 9.79788C7.84286 9.79788 7.66668 9.604 7.66668 9.38599C7.66668 9.33672 7.67573 9.28603 7.69524 9.23616ZM6.56034 9.37553C6.46963 9.62894 6.2297 9.79788 5.9606 9.79788C5.82606 9.79788 5.69875 9.75564 5.59377 9.68163C5.48637 9.60598 5.40496 9.499 5.36067 9.37533L4.22255 6.19104C4.12561 5.91993 4.32652 5.63475 4.61432 5.63475H4.63785C4.81564 5.63475 4.97392 5.74798 5.03164 5.91631L5.91153 8.48961C5.93647 8.56261 6.03984 8.56201 6.06398 8.4888L6.9139 5.92013C6.94137 5.83708 6.99433 5.7648 7.06524 5.71356C7.13615 5.66233 7.22141 5.63475 7.30889 5.63475C7.54682 5.63475 7.72541 5.82963 7.72541 6.05026C7.72541 6.09671 7.71756 6.14418 7.70067 6.19124L6.56034 9.37553ZM14.8741 13.5529L12.1719 13.5117C11.6886 13.5043 11.2932 13.8942 11.2938 14.3773L11.2971 17.2704H4.19218V11.6592H14.8926L14.8741 13.5529ZM14.2318 8.08778C14.3404 8.1638 14.4345 8.24445 14.5141 8.32992C14.6326 8.45683 14.7921 8.68208 14.9928 9.00588L15.0984 9.17482C15.2735 9.45457 15.0724 9.81799 14.7422 9.81799H14.7199C14.5799 9.81799 14.449 9.7482 14.3709 9.63175L13.888 8.91216C13.6722 8.58836 13.5246 8.38443 13.445 8.30016C13.3655 8.21589 13.2813 8.15817 13.1922 8.12699C13.1033 8.09562 12.9623 8.08013 12.7692 8.08013C12.7222 8.08013 12.6795 8.09924 12.6488 8.13001C12.6329 8.14578 12.6202 8.16455 12.6116 8.18523C12.6031 8.20591 12.5986 8.22809 12.5987 8.25048V9.39765C12.5987 9.62974 12.4106 9.81799 12.1785 9.81799C12.0623 9.81799 11.9573 9.77093 11.8813 9.69491C11.8422 9.6559 11.8112 9.60957 11.7901 9.55856C11.769 9.50755 11.7581 9.45286 11.7582 9.39765V6.13754C11.7582 5.87106 11.9742 5.65486 12.2409 5.65486H13.5274C13.9723 5.65486 14.2955 5.69227 14.4972 5.76708C14.6987 5.8419 14.8602 5.97484 14.9813 6.1661C15.1024 6.35716 15.1631 6.57598 15.1631 6.82194C15.1631 7.13448 15.0712 7.39231 14.8876 7.59584C14.7382 7.76156 14.5282 7.87741 14.2581 7.94337C14.1907 7.95987 14.1748 8.04775 14.2318 8.08778ZM14.1847 6.53656C14.1099 6.45048 14.0045 6.39598 13.8681 6.37325C13.8 6.3638 13.5956 6.35917 13.2547 6.35917H12.5987V7.41544H13.2207C13.624 7.41544 13.8758 7.39855 13.9761 7.36436C14.0763 7.33037 14.1549 7.27164 14.2118 7.18838C14.2686 7.10512 14.2969 7.00094 14.2969 6.87605C14.2969 6.73587 14.2595 6.62284 14.1847 6.53656ZM9.14248 8.15073H9.93247C10.0165 8.15073 10.0749 8.06686 10.0457 7.98822L9.64668 6.91365C9.60767 6.80847 9.45864 6.80887 9.42022 6.91446L9.02905 7.98883C9.00049 8.06746 9.05882 8.15073 9.14248 8.15073Z" fill="#1890FF"/>
</svg>
