<svg width="16" height="16" viewBox="0 0 16 16" fill="none" xmlns="http://www.w3.org/2000/svg">
<path d="M6.79744 2C7.01919 2 7.20896 2.07889 7.36674 2.23667C7.52452 2.39446 7.60341 2.58422 7.60341 2.80597V6.79744C7.60341 7.01919 7.52452 7.20896 7.36674 7.36674C7.20896 7.52452 7.01919 7.60341 6.79744 7.60341H2.80597C2.58422 7.60341 2.39446 7.52452 2.23667 7.36674C2.07889 7.20896 2 7.01919 2 6.79744V2.80597C2 2.58422 2.07889 2.39446 2.23667 2.23667C2.39446 2.07889 2.58422 2 2.80597 2H6.79744V2ZM13.2068 2C13.4286 2 13.6162 2.07889 13.7697 2.23667C13.9232 2.39446 14 2.58422 14 2.80597V6.79744C14 7.01919 13.9232 7.20896 13.7697 7.36674C13.6162 7.52452 13.4286 7.60341 13.2068 7.60341H9.20256C8.98081 7.60341 8.79104 7.52452 8.63326 7.36674C8.47548 7.20896 8.39659 7.01919 8.39659 6.79744V2.80597C8.39659 2.58422 8.47548 2.39446 8.63326 2.23667C8.79104 2.07889 8.98081 2 9.20256 2H13.2068V2ZM6.79744 8.39659C7.01919 8.39659 7.20896 8.47548 7.36674 8.63326C7.52452 8.79104 7.60341 8.98081 7.60341 9.20256V13.2068C7.60341 13.4286 7.52452 13.6162 7.36674 13.7697C7.20896 13.9232 7.01919 14 6.79744 14H2.80597C2.58422 14 2.39446 13.9232 2.23667 13.7697C2.07889 13.6162 2 13.4286 2 13.2068V9.20256C2 8.98081 2.07889 8.79104 2.23667 8.63326C2.39446 8.47548 2.58422 8.39659 2.80597 8.39659H6.79744V8.39659ZM13.2068 8.39659C13.4286 8.39659 13.6162 8.47548 13.7697 8.63326C13.9232 8.79104 14 8.98081 14 9.20256V13.2068C14 13.4286 13.9232 13.6162 13.7697 13.7697C13.6162 13.9232 13.4286 14 13.2068 14H9.20256C8.98081 14 8.79104 13.9232 8.63326 13.7697C8.47548 13.6162 8.39659 13.4286 8.39659 13.2068V9.20256C8.39659 8.98081 8.47548 8.79104 8.63326 8.63326C8.79104 8.47548 8.98081 8.39659 9.20256 8.39659H13.2068V8.39659Z" fill="#FDBA38"/>
</svg>
