<svg width="20" height="20" viewBox="0 0 20 20" fill="none" xmlns="http://www.w3.org/2000/svg">
<path d="M18.8365 16.0869L11.0558 2.60949C10.9488 2.42419 10.7949 2.27032 10.6096 2.16333C10.4243 2.05634 10.2141 2.00001 10.0002 2C9.7862 1.99998 9.57599 2.0563 9.39069 2.16329C9.20539 2.27028 9.05152 2.42417 8.94456 2.60949L1.16343 16.0869C0.945524 16.464 0.945524 16.9287 1.16343 17.3059C1.38133 17.683 1.78369 17.9153 2.21904 17.9153H17.7811C18.2167 17.9153 18.6188 17.683 18.8367 17.3059C19.0546 16.9287 19.0544 16.464 18.8365 16.0869ZM10.1576 6.37461C10.7114 6.37002 11.2604 6.86174 11.2604 7.31772L10.9868 12.0335C10.9868 12.4895 10.6138 12.8627 10.1578 12.8627C9.70184 12.8627 9.32881 12.4897 9.32881 12.0335L9.05523 7.31772C9.05477 6.86174 9.48989 6.39202 10.1576 6.37461V6.37461ZM10.1576 16.2908C9.52839 16.2908 9.01834 15.7807 9.01834 15.1515C9.01834 14.5223 9.52839 14.0123 10.1576 14.0123C10.7868 14.0123 11.2968 14.5223 11.2968 15.1515C11.2968 15.7807 10.7868 16.2908 10.1576 16.2908Z" fill="#FDBA38"/>
</svg>
